<?xml version="1.0" encoding="UTF-8"?>
<svg width="41px" height="64px" viewBox="0 0 41 64" version="1.1" xmlns="http://www.w3.org/2000/svg" xmlns:xlink="http://www.w3.org/1999/xlink">
    <!-- Generator: Sketch 62 (91390) - https://sketch.com -->
    <title>Group 7</title>
    <desc>Created with Sketch.</desc>
    <g id="Page-1" stroke="none" stroke-width="1" fill="none" fill-rule="evenodd">
        <g id="Work-Detail-(Carglass)" transform="translate(-701.000000, -40.000000)" fill-rule="nonzero" stroke="#D1D1D2">
            <g id="Group-7" transform="translate(701.000000, 40.000000)">
                <g id="Group-4" transform="translate(0.000000, -0.000000)">
                    <g id="2020" transform="translate(0.795809, 23.081967)" stroke-width="0.25">
                        <path d="M17.3493348,17.8473057 L17.3493348,15.0570932 L3.38893712,15.0570932 L3.38893712,14.4286669 C3.38893712,12.1914694 4.12236381,11.5881802 6.67671194,11.2111244 L12.1900574,10.4570129 C16.2112589,9.85372373 17.3240442,8.14440431 17.3240442,5.27878057 L17.3240442,4.95199892 C17.3240442,1.53336007 14.5926621,0 9.35751295,0 L8.62408626,0 C4.22352612,0 1.18865705,1.13116727 0.45523036,5.07768417 L3.84416748,5.07768417 C4.32468842,3.34322769 5.71567007,2.81534964 9.1046072,2.81534964 C12.6452878,2.81534964 14.0362694,3.51918705 14.0362694,5.20336942 L14.0362694,5.35419172 C14.0362694,6.88755179 13.3534239,7.4405669 10.9255286,7.7924856 L5.9938664,8.47118596 C1.39098166,9.14988632 0.101162302,10.7586575 0.101162302,14.9565449 L0.101162302,17.8473057 L17.3493348,17.8473057 Z M30.2222378,18.0986762 C36.3172665,18.0986762 39.0486486,15.9368899 39.0486486,9.95427193 L39.0486486,8.14440431 C39.0486486,2.16178633 36.3425571,0 30.2222378,0 L28.9324184,0 C22.8373897,0 20.1060076,2.16178633 20.1060076,8.14440431 L20.1060076,9.95427193 C20.1060076,15.9368899 22.8373897,18.0986762 28.9324184,18.0986762 L30.2222378,18.0986762 Z M29.5899734,15.2581896 C24.6583112,15.2581896 23.419073,13.8253777 23.419073,9.77831258 L23.419073,8.34550071 C23.419073,4.29843561 24.6583112,2.86562374 29.5899734,2.86562374 C34.496345,2.86562374 35.7355832,4.29843561 35.7355832,8.34550071 L35.7355832,9.77831258 C35.7355832,13.8253777 34.496345,15.2581896 29.5899734,15.2581896 Z M17.3493348,39.8713838 L17.3493348,37.0811712 L3.38893712,37.0811712 L3.38893712,36.4527449 C3.38893712,34.2155474 4.12236381,33.6122582 6.67671194,33.2352025 L12.1900574,32.481091 C16.2112589,31.8778018 17.3240442,30.1684823 17.3240442,27.3028586 L17.3240442,26.9760769 C17.3240442,23.5574381 14.5926621,22.024078 9.35751295,22.024078 L8.62408626,22.024078 C4.22352612,22.024078 1.18865705,23.1552453 0.45523036,27.1017622 L3.84416748,27.1017622 C4.32468842,25.3673057 5.71567007,24.8394277 9.1046072,24.8394277 C12.6452878,24.8394277 14.0362694,25.5432651 14.0362694,27.2274474 L14.0362694,27.3782697 C14.0362694,28.9116298 13.3534239,29.4646449 10.9255286,29.8165636 L5.9938664,30.495264 C1.39098166,31.1739643 0.101162302,32.7827356 0.101162302,36.980623 L0.101162302,39.8713838 L17.3493348,39.8713838 Z M30.2222378,40.1227543 C36.3172665,40.1227543 39.0486486,37.9609679 39.0486486,31.97835 L39.0486486,30.1684823 C39.0486486,24.1858644 36.3425571,22.024078 30.2222378,22.024078 L28.9324184,22.024078 C22.8373897,22.024078 20.1060076,24.1858644 20.1060076,30.1684823 L20.1060076,31.97835 C20.1060076,37.9609679 22.8373897,40.1227543 28.9324184,40.1227543 L30.2222378,40.1227543 Z M29.5899734,37.2822676 C24.6583112,37.2822676 23.419073,35.8494557 23.419073,31.8023906 L23.419073,30.3695787 C23.419073,26.3225136 24.6583112,24.8897018 29.5899734,24.8897018 C34.496345,24.8897018 35.7355832,26.3225136 35.7355832,30.3695787 L35.7355832,31.8023906 C35.7355832,35.8494557 34.496345,37.2822676 29.5899734,37.2822676 Z"></path>
                    </g>
                    <path d="M0.5,8.14112718 C0.5,5.4555876 1.06715592,3.52010477 2.4482071,2.27785268 C3.82937598,1.03549473 5.98791007,0.5 9.0507502,0.5 L10.700887,0.5 C13.2946984,0.5 15.2148813,0.886456618 16.5760423,1.77837556 C17.7561908,2.55168371 18.4925558,3.70844726 18.900774,5.28317876 L16.4070948,5.28317876 C16.0313022,4.30496594 15.42461,3.5969453 14.4691943,3.12065353 C13.5081478,2.64155471 12.1639156,2.40399964 10.2758517,2.40399964 L9.47578543,2.40399964 C6.9238314,2.40399964 5.35603176,2.88742436 4.39146936,3.78538317 C3.3152418,4.78729659 2.95028599,6.33495298 2.95028599,8.51343483 L2.95028599,9.35733216 C2.95028599,11.535814 3.3152418,13.0834704 4.39146936,14.0853838 C5.35603176,14.9833426 6.9238314,15.4667674 9.47578543,15.4667674 L10.2758517,15.4667674 C12.1639156,15.4667674 13.5081478,15.2292123 14.4691943,14.7501135 C15.42461,14.2738217 16.0313022,13.5658011 16.4070948,12.5875882 L18.900774,12.5875882 C18.4925558,14.1623197 17.7561908,15.3190833 16.5760423,16.0923914 C15.2148813,16.9843104 13.2946984,17.370767 10.700887,17.370767 L9.0507502,17.370767 C5.98791007,17.370767 3.82937598,16.8352723 2.4482071,15.5929143 C1.06715592,14.3506622 0.5,12.4151794 0.5,9.7296398 L0.5,8.14112718 Z M22.951861,5.53497366 C22.951861,3.78946281 23.5440968,2.55115034 24.7384229,1.75235688 C26.0706721,0.861317211 28.0885541,0.5 30.7275469,0.5 L31.2775925,0.5 C33.5237588,0.5 35.580814,0.803008746 37.1019893,1.66655936 C38.173555,2.27487267 38.9649691,3.16969336 39.3449656,4.43928143 L36.7732491,4.43928143 C36.4277747,3.66410739 35.8019046,3.12822453 34.9246856,2.77910049 C33.907747,2.3743695 32.5285517,2.23025607 30.8775594,2.23025607 C28.964163,2.23025607 27.6699151,2.43518206 26.8422739,2.82328914 C26.342361,3.05771405 25.9944865,3.36022262 25.7632555,3.71886342 C25.519814,4.09644268 25.402147,4.54200901 25.402147,5.06338398 C25.402147,6.02688729 25.6693305,6.68229376 26.342372,7.1294043 C26.8971252,7.49793435 27.7903081,7.71892315 29.2105653,7.77212509 L34.3575471,7.94574055 C36.3312182,8.02594739 37.7310192,8.37012703 38.6316691,9.0584791 C39.4982673,9.72080599 39.8533448,10.7068809 39.8533448,12.0131267 C39.8533448,13.9417658 39.1900738,15.2430107 37.9502201,16.0659019 C36.4769411,17.0437175 34.2609061,17.370767 31.5276133,17.370767 L30.9525656,17.370767 C28.5845783,17.370767 26.403239,17.1031459 24.8046263,16.2526522 C23.7115725,15.6711259 22.9062992,14.8072802 22.5323653,13.5555881 L25.1482163,13.5555881 C25.5306201,14.3225613 26.1936107,14.8323104 27.1011315,15.1529806 C28.1918367,15.5383785 29.659567,15.6405109 31.3794158,15.6405076 C33.3835764,15.6332325 34.8675892,15.444213 35.8374659,15.0018301 C36.3691354,14.7593234 36.7603713,14.4406778 37.0236724,14.0475594 C37.2878667,13.6531073 37.4280609,13.179388 37.4280609,12.6088189 C37.4280609,11.5743567 37.1557181,10.9067031 36.5099318,10.4584175 C35.9528295,10.0716936 35.0530663,9.85500168 33.6220474,9.80088269 L28.4726608,9.60235981 C26.5001139,9.52219865 25.0952211,9.17223707 24.1884058,8.48206062 C23.314832,7.8171843 22.951861,6.83151593 22.951861,5.53497366 Z" id="CS" fill="#D1D1D2"></path>
                </g>
            </g>
        </g>
    </g>
</svg>