<?xml version="1.0" encoding="UTF-8"?>
<svg width="41px" height="63px" viewBox="0 0 41 63" version="1.1" xmlns="http://www.w3.org/2000/svg" xmlns:xlink="http://www.w3.org/1999/xlink">
    <title>logo</title>
    <g id="0_Symbols" stroke="none" stroke-width="1" fill="none" fill-rule="evenodd">
        <g id="Artboard" transform="translate(-68.000000, -68.000000)" fill-rule="nonzero">
            <g id="logo" transform="translate(68.000000, 68.000000)">
                <path d="M10.7,18 C16.15,18 18.725,16.275 19.525,12.175 L16.05,12.175 C15.425,14.2 13.9,15.075 10.275,15.075 L9.475,15.075 C4.5,15.075 3.45,13.25 3.45,9.425 L3.45,8.575 C3.45,4.75 4.5,2.925 9.475,2.925 L10.275,2.925 C13.9,2.925 15.425,3.8 16.05,5.825 L19.525,5.825 C18.725,1.725 16.15,0 10.7,0 L9.05,0 C2.55,0 7.2475359e-13,2.45 7.2475359e-13,8.2 L7.2475359e-13,9.8 C7.2475359e-13,15.55 2.55,18 9.05,18 L10.7,18 Z" id="Path" fill="#D1D1D2"></path>
                <path d="M31.525,18 C36.925,18 40.35,16.675 40.35,12.325 L40.35,12.1 C40.35,9.125 38.65,7.675 34.375,7.5 L29.225,7.325 C26.575,7.225 25.9,6.575 25.9,5.2 L25.9,5.1 C25.9,3.5 27.175,2.75 30.875,2.75 C33.825,2.75 35.875,3.2 36.425,4.975 L39.975,4.975 C39.275,1.15 35.625,0 31.275,0 L30.725,0 C25.325,0 22.45,1.55 22.45,5.4 L22.45,5.575 C22.45,8.525 24.175,10 28.45,10.175 L33.6,10.375 C36.225,10.475 36.925,11.075 36.925,12.475 L36.925,12.7 C36.925,14.65 35.025,15.25 31.375,15.25 C28.35,15.25 26.125,14.95 25.475,13.15 L21.9,13.15 C22.575,17 26.425,18 30.95,18 L31.525,18 Z" id="Path" fill="#D1D1D2"></path>
                <path d="M18,40.75 L18,37.975 L4.2,37.975 L4.2,37.35 C4.2,35.125 4.925,34.525 7.45,34.15 L12.9,33.4 C16.875,32.8 17.975,31.1 17.975,28.25 L17.975,27.925 C17.975,24.525 15.275,23 10.1,23 L9.375,23 C5.025,23 2.025,24.125 1.3,28.05 L4.65,28.05 C5.125,26.325 6.5,25.8 9.85,25.8 C13.35,25.8 14.725,26.5 14.725,28.175 L14.725,28.325 C14.725,29.85 14.05,30.4 11.65,30.75 L6.775,31.425 C2.225,32.1 0.95,33.7 0.95,37.875 L0.95,40.75 L18,40.75 Z" id="Path" stroke="#D1D1D2" stroke-width="0.25"></path>
                <path d="M30.725,23 C36.775,23 39.45,25.15 39.45,31.1 L39.45,31.1 L39.45,32.9 C39.45,38.85 36.75,41 30.725,41 L30.725,41 L29.45,41 C23.425,41 20.725,38.85 20.725,32.9 L20.725,32.9 L20.725,31.1 C20.725,25.15 23.425,23 29.45,23 L29.45,23 Z M30.1,25.85 C25.225,25.85 24,27.275 24,31.3 L24,31.3 L24,32.725 C24,36.75 25.225,38.175 30.1,38.175 C34.95,38.175 36.175,36.75 36.175,32.725 L36.175,32.725 L36.175,31.3 C36.175,27.275 34.95,25.85 30.1,25.85 Z" id="Combined-Shape" stroke="#D1D1D2" stroke-width="0.25"></path>
                <path d="M18,62.75 L18,59.975 L4.2,59.975 L4.2,59.35 C4.2,57.125 4.925,56.525 7.45,56.15 L12.9,55.4 C16.875,54.8 17.975,53.1 17.975,50.25 L17.975,49.925 C17.975,46.525 15.275,45 10.1,45 L9.375,45 C5.025,45 2.025,46.125 1.3,50.05 L4.65,50.05 C5.125,48.325 6.5,47.8 9.85,47.8 C13.35,47.8 14.725,48.5 14.725,50.175 L14.725,50.325 C14.725,51.85 14.05,52.4 11.65,52.75 L6.775,53.425 C2.225,54.1 0.95,55.7 0.95,59.875 L0.95,62.75 L18,62.75 Z" id="Path" stroke="#D1D1D2" stroke-width="0.25"></path>
                <polygon id="Path" stroke="#D1D1D2" stroke-width="0.25" points="34.15 62.75 34.15 45.25 29.725 45.25 24.05 47.975 24.05 51.525 30.75 47.925 30.9 47.925 30.9 62.75"></polygon>
            </g>
        </g>
    </g>
</svg>