<?xml version="1.0" encoding="UTF-8"?>
<svg width="120px" height="120px" viewBox="0 0 120 120" version="1.1" xmlns="http://www.w3.org/2000/svg" xmlns:xlink="http://www.w3.org/1999/xlink">
    <!-- Generator: Sketch 59.1 (86144) - https://sketch.com -->
    <title>Artboard</title>
    <desc>Created with Sketch.</desc>
    <g id="Artboard" stroke="none" stroke-width="1" fill="none" fill-rule="evenodd">
        <rect fill="#FFFFFF" x="0" y="0" width="120" height="120"></rect>
        <circle id="Oval" stroke="#000000" stroke-width="9" cx="60" cy="60" r="55.5"></circle>
        <path d="M61.4620155,36 C71.7317829,36 79.220155,41.6101449 83,49.9898551 L73.0155039,49.9898551 C70.448062,46.6521739 66.3116279,44.3086957 61.4620155,44.3086957 C52.7612403,44.3086957 46.3426357,51.2681159 46.3426357,60.5 C46.3426357,69.7318841 52.7612403,76.6913043 61.4620155,76.6913043 C66.3116279,76.6913043 70.448062,74.4188406 73.0155039,71.0101449 L83,71.0101449 C79.220155,79.4608696 71.7317829,85 61.4620155,85 C47.5550388,85 37,74.5608696 37,60.5 C37,46.4391304 47.5550388,36 61.4620155,36 Z" id="C" fill="#000000" fill-rule="nonzero"></path>
    </g>
</svg>