<?xml version="1.0" encoding="UTF-8"?>
<svg width="120px" height="120px" viewBox="0 0 120 120" version="1.1" xmlns="http://www.w3.org/2000/svg" xmlns:xlink="http://www.w3.org/1999/xlink">
    <!-- Generator: Sketch 59.1 (86144) - https://sketch.com -->
    <title>Artboard Copy 3</title>
    <desc>Created with Sketch.</desc>
    <g id="Artboard-Copy-3" stroke="none" stroke-width="1" fill="none" fill-rule="evenodd">
        <circle id="Oval" stroke="#000000" stroke-width="5" cx="60" cy="60" r="57.5"></circle>
        <path d="M92.87,53.1 L92.42,53.1 C92.42,47.5214516 88.238231,46.2989126 81.5032785,46.2609271 L39.86,46.26 C31.67,46.26 26.72,50.22 26.72,58.5 C26.72,66.78 31.67,70.74 39.86,70.74 L81.17,70.74 C88.1,70.74 92.42,69.57 92.42,63.9 L92.87,63.9 C92.87,80.55 78.38,90.9 61.73,90.9 C38.96,90.9 26.27,74.7 26.27,58.5 C26.27,42.3 38.96,26.1 61.73,26.1 C75.86,26.1 88.55,33.66 92.06,45.99 L92.42,45.99 C90.62,38.25 82.88,29.52 71.18,27 L92.87,27 L92.87,53.1 Z" id="C" fill="#000000" fill-rule="nonzero"></path>
    </g>
</svg>